<?xml version="1.0" encoding="UTF-8" standalone="no"?>
<svg
   xmlns:dc="http://purl.org/dc/elements/1.1/"
   xmlns:cc="http://creativecommons.org/ns#"
   xmlns:rdf="http://www.w3.org/1999/02/22-rdf-syntax-ns#"
   xmlns:svg="http://www.w3.org/2000/svg"
   xmlns="http://www.w3.org/2000/svg"
   xmlns:sodipodi="http://sodipodi.sourceforge.net/DTD/sodipodi-0.dtd"
   xmlns:inkscape="http://www.inkscape.org/namespaces/inkscape"
   width="133"
   height="36"
   viewBox="0 0 133 36"
   fill="none"
   version="1.1"
   id="svg8"
   sodipodi:docname="logo--white.svg"
   inkscape:version="0.92.4 (5da689c313, 2019-01-14)">
  <metadata
     id="metadata14">
    <rdf:RDF>
      <cc:Work
         rdf:about="">
        <dc:format>image/svg+xml</dc:format>
        <dc:type
           rdf:resource="http://purl.org/dc/dcmitype/StillImage" />
      </cc:Work>
    </rdf:RDF>
  </metadata>
  <defs
     id="defs12" />
  <sodipodi:namedview
     pagecolor="#ffffff"
     bordercolor="#666666"
     borderopacity="1"
     objecttolerance="10"
     gridtolerance="10"
     guidetolerance="10"
     inkscape:pageopacity="0"
     inkscape:pageshadow="2"
     inkscape:window-width="1850"
     inkscape:window-height="1016"
     id="namedview10"
     showgrid="false"
     inkscape:zoom="5.2330827"
     inkscape:cx="52.368011"
     inkscape:cy="25.207279"
     inkscape:window-x="70"
     inkscape:window-y="27"
     inkscape:window-maximized="1"
     inkscape:current-layer="svg8" />
  <g
     id="g895"
     transform="matrix(1.3333334,0,0,1.3333334,-654.07238,-194.06498)">
    <g
       transform="matrix(0.03316601,0,0,0.03316601,489.25426,144.06759)"
       id="#2ba7dfff">
      <path
         style="opacity:1;fill:#ffffff"
         inkscape:connector-curvature="0"
         id="path2"
         d="m 170.12,207.53 c 173.93,-24.78 347.86,-49.57 521.8,-74.33 15.61,-1.87 31.45,8.39 36.44,23.24 1.8,4.97 2.17,10.31 1.9,15.55 -0.03,34.38 0,68.76 -0.01,103.14 -92.88,72.69 -173.36,161.21 -236.72,260.69 -9.33,-8.75 -18.59,-17.59 -27.26,-27.01 15.3,-11.54 26.88,-27.96 32.25,-46.38 3.63,-11.68 3.34,-24.37 -0.04,-36.07 -4.54,-16.03 -13.33,-30.33 -20.84,-45.06 -7.02,-12.93 -17.49,-25.3 -32.04,-29.69 -15.65,-4.45 -34.75,1.29 -43.42,15.57 -5.9,9.82 -6.71,21.89 -4.95,33 1.34,9.12 5.01,17.65 8.49,26.13 7.61,18.26 16.7,35.92 27.12,52.74 -33.85,19.18 -73,25.41 -111.08,30.17 -61.39,6.89 -123.88,3.46 -184.26,-9.55 -0.03,-84.56 0.04,-169.11 -0.04,-253.67 -0.99,-12.92 5.52,-26.06 16.52,-32.95 4.82,-3.13 10.44,-4.9 16.14,-5.52 m 248.2,97.88 c -1.11,2.32 -4.3,3.21 -6.45,1.83 -5.67,-3.48 -11.28,-7.06 -16.9,-10.61 -2.6,2.65 -4.57,5.82 -6.65,8.88 -4.66,7.11 -9.32,14.27 -13.17,21.86 8.75,5.95 17.85,11.38 26.75,17.11 4.7,-5.32 8.82,-11.14 12.3,-17.33 1.09,-2.52 4.48,-3.62 6.77,-2.02 5.67,3.37 11.44,6.58 17.23,9.75 3.58,-3.76 6.2,-8.3 9.03,-12.62 3.71,-6.02 7.53,-12 10.62,-18.38 -9.07,-5.22 -18.19,-10.33 -27.24,-15.58 -4.84,5.13 -8.87,10.96 -12.29,17.11 z" />
      <path
         style="opacity:1;fill:#ffffff"
         inkscape:connector-curvature="0"
         id="path4"
         d="m 775.31,176.38 c 5.07,-1.54 10.87,-0.94 15.18,2.29 4.24,3 6.72,8.2 6.68,13.37 -0.24,165.31 -0.46,330.63 -0.69,495.94 -0.15,7.41 -5.21,14.71 -12.49,16.69 -5.63,1.65 -11.86,-0.12 -16.07,-4.11 8.58,-2.36 15.3,-10.51 15.21,-19.52 -0.03,-163.35 0.03,-326.71 -0.03,-490.06 0.09,-5.86 -3.24,-11.15 -7.79,-14.6 z" />
      <path
         style="opacity:1;fill:#ffffff"
         inkscape:connector-curvature="0"
         id="path6"
         d="m 512.87,575.42 c 58.99,-92.17 132.64,-174.94 217.37,-244.19 0.06,114.92 -0.11,229.84 0.14,344.75 0.34,13.02 -4.74,26.16 -13.99,35.38 -5.38,5.35 -12.63,9.3 -20.36,9.32 -74.79,-0.03 -149.58,0.05 -224.37,-0.04 -27.92,26.76 -55.6,53.78 -83.52,80.54 -12.37,-26.83 -24.74,-53.67 -37.12,-80.5 -56.65,0 -113.31,0 -169.96,0 -6.03,-0.2 -12.21,0.7 -18.05,-1.25 -14.23,-3.94 -25,-17.57 -25.56,-32.33 0.12,-49.22 0.01,-98.46 0.05,-147.69 70.54,16.78 144.29,20.58 216.06,9.93 21.32,-2.94 42.42,-7.81 62.64,-15.28 14.29,-5.38 28.43,-11.44 41.48,-19.46 17.04,21.46 36.44,40.88 55.19,60.82 z" />
      <path
         style="opacity:1;fill:#ffffff"
         inkscape:connector-curvature="0"
         id="path8"
         d="m 432.55,399.57 c 9.85,-6.16 22.51,-7.28 33.45,-3.55 4.12,1.4 8.54,3.23 10.83,7.2 2.87,4.41 1.94,9.91 1.11,14.79 -4.75,22.14 -19.24,41.84 -38.66,53.4 -5.11,-6.87 -10.03,-13.89 -14.8,-21 -5.18,-7.65 -6.35,-17.31 -5.65,-26.33 0.75,-9.62 5.41,-19.26 13.72,-24.51 z" />
    </g>
    <g
       transform="matrix(0.03316601,0,0,0.03316601,489.25426,144.06759)"
       id="#ffffffff" />
    <text
       xml:space="preserve"
       style="font-style:normal;font-weight:normal;font-size:11.99999905px;line-height:1.25;font-family:sans-serif;letter-spacing:0px;word-spacing:0px;fill:#ffffff;fill-opacity:1;stroke:none;stroke-width:0.74999994"
       x="522.927"
       y="163.41663"
       id="text899"><tspan
         sodipodi:role="line"
         id="tspan897"
         x="522.927"
         y="163.41663"
         style="font-size:11.99999905px;fill:#ffffff;stroke-width:0.74999994"><tspan
   style="font-style:normal;font-variant:normal;font-weight:bold;font-stretch:normal;font-size:11.99999905px;font-family:sans-serif;-inkscape-font-specification:'sans-serif Bold';fill:#ffffff"
   id="tspan901">TA </tspan>ADMIN</tspan></text>
  </g>
</svg>
